<svg xmlns="http://www.w3.org/2000/svg" viewBox="0 0 1113.05 1144.82"><defs><style>.cls-1,.cls-3{fill:#e76d6c;}.cls-2{fill:#222633;}.cls-3{font-size:226.93px;font-family:CeraPro-Bold, Cera Pro;font-weight:700;letter-spacing:-0.04em;}.cls-4{letter-spacing:-0.06em;}</style></defs><g id="Layer_2" data-name="Layer 2"><path class="cls-1" d="M267.38,603.59c-5.71-2.27-15.32-5.22-25.57-4.64-26.09,1.5-17.51-10.59,0-9.49,10.26.64,30.57-2.32,30.1-6.87a75.24,75.24,0,0,0-20.44-39.2,6.88,6.88,0,0,0-8.65-.88c-5.17,3.35-13.11,9.45-18.57,18.11-13.91,22.11-18.78,8.11-7.74-5.49,4.24-5.22,9.6-14.67,11.69-21.22a6.7,6.7,0,0,0-4-8.27,63.72,63.72,0,0,0-21.71-4.59,1.36,1.36,0,0,0-1.4,1.35c0,.44,0,.93,0,1.63V668.66c0,1.37,0,1.53,0,2.65a.75.75,0,0,0,.7.64c3.41,0,15.71-2.35,23.4-5.33a6.77,6.77,0,0,0,4.14-7.73c-1.28-6-4.14-15.63-10.29-23.81-15.68-20.89-.87-20.44,7.89-5.28,5.22,9,19.58,24.6,22.86,21.12a75.33,75.33,0,0,0,21.87-39.58A6.9,6.9,0,0,0,267.38,603.59Z"/><path class="cls-2" d="M188.87,522c-.56,0-1.11,0-1.67,0-1.06,0-2.11,0-3.16.1a76,76,0,0,0-32.64,13.38,77.08,77.08,0,0,0-13.23,12.09A76,76,0,0,0,120,589.7a77,77,0,0,0-.4,7.78,75.08,75.08,0,0,0,.41,7.84,76.32,76.32,0,0,0,63.35,67.46c1.44.07,2.88.16,4.34.15l1.32,0a3.51,3.51,0,0,0,1.86-3.1V525.17A3.53,3.53,0,0,0,188.87,522Z"/><text class="cls-3" transform="translate(275.28 638.67)">gu<tspan class="cls-4" x="256.65" y="0">av</tspan><tspan x="479.95" y="0">ah</tspan></text></g></svg>